<svg xmlns="http://www.w3.org/2000/svg" xmlns:xlink="http://www.w3.org/1999/xlink" width="500" zoomAndPan="magnify" viewBox="0 0 375 374.999991" height="500" preserveAspectRatio="xMidYMid meet" version="1.0"><defs><g/><clipPath id="fedb34391e"><path d="M 44.597656 37.5 L 330.347656 37.5 L 330.347656 162 L 44.597656 162 Z M 44.597656 37.5 " clip-rule="nonzero"/></clipPath><clipPath id="a155bc6f08"><path d="M 44.597656 199 L 330.347656 199 L 330.347656 323.25 L 44.597656 323.25 Z M 44.597656 199 " clip-rule="nonzero"/></clipPath></defs><rect x="-37.5" width="450" fill="#ffffff" y="-37.499999" height="449.999989" fill-opacity="1"/><rect x="-37.5" width="450" fill="#ffffff" y="-37.499999" height="449.999989" fill-opacity="1"/><g clip-path="url(#fedb34391e)"><path fill="#000000" d="M 287.617188 37.5 L 87.328125 37.5 C 85.929688 37.5 84.53125 37.570312 83.140625 37.710938 C 81.75 37.847656 80.367188 38.054688 78.996094 38.328125 C 77.621094 38.601562 76.265625 38.945312 74.929688 39.351562 C 73.589844 39.757812 72.273438 40.230469 70.984375 40.765625 C 69.691406 41.300781 68.425781 41.898438 67.195312 42.558594 C 65.960938 43.21875 64.761719 43.9375 63.597656 44.714844 C 62.4375 45.492188 61.3125 46.324219 60.234375 47.214844 C 59.152344 48.101562 58.117188 49.039062 57.125 50.027344 C 56.136719 51.019531 55.199219 52.054688 54.3125 53.136719 C 53.425781 54.214844 52.589844 55.339844 51.8125 56.5 C 51.035156 57.664062 50.316406 58.863281 49.65625 60.097656 C 48.996094 61.328125 48.398438 62.59375 47.863281 63.886719 C 47.328125 65.175781 46.855469 66.492188 46.449219 67.832031 C 46.042969 69.167969 45.699219 70.523438 45.425781 71.894531 C 45.152344 73.269531 44.945312 74.648438 44.808594 76.042969 C 44.667969 77.433594 44.597656 78.832031 44.597656 80.230469 L 44.597656 151.800781 C 44.597656 152.425781 44.660156 153.042969 44.78125 153.660156 C 44.902344 154.273438 45.082031 154.867188 45.324219 155.445312 C 45.5625 156.023438 45.855469 156.570312 46.203125 157.089844 C 46.550781 157.613281 46.945312 158.09375 47.386719 158.535156 C 47.828125 158.976562 48.3125 159.371094 48.832031 159.71875 C 49.351562 160.066406 49.898438 160.359375 50.476562 160.601562 C 51.054688 160.839844 51.652344 161.019531 52.265625 161.140625 C 52.878906 161.265625 53.496094 161.324219 54.121094 161.324219 L 287.617188 161.324219 C 289.019531 161.324219 290.414062 161.253906 291.804688 161.113281 C 293.199219 160.976562 294.578125 160.769531 295.953125 160.496094 C 297.324219 160.222656 298.679688 159.882812 300.015625 159.472656 C 301.355469 159.066406 302.671875 158.597656 303.964844 158.058594 C 305.253906 157.523438 306.519531 156.925781 307.75 156.265625 C 308.984375 155.605469 310.183594 154.886719 311.347656 154.109375 C 312.507812 153.332031 313.632812 152.5 314.714844 151.613281 C 315.792969 150.722656 316.828125 149.785156 317.820312 148.796875 C 318.808594 147.808594 319.746094 146.769531 320.632812 145.691406 C 321.523438 144.609375 322.355469 143.488281 323.132812 142.324219 C 323.910156 141.160156 324.628906 139.960938 325.289062 138.730469 C 325.949219 137.496094 326.546875 136.230469 327.082031 134.941406 C 327.617188 133.648438 328.089844 132.332031 328.496094 130.996094 C 328.90625 129.65625 329.246094 128.300781 329.519531 126.929688 C 329.792969 125.558594 330 124.175781 330.136719 122.78125 C 330.277344 121.390625 330.347656 119.996094 330.347656 118.597656 L 330.347656 80.230469 C 330.347656 78.832031 330.277344 77.433594 330.136719 76.042969 C 330 74.648438 329.792969 73.269531 329.519531 71.894531 C 329.246094 70.523438 328.90625 69.167969 328.496094 67.832031 C 328.089844 66.492188 327.617188 65.175781 327.082031 63.886719 C 326.546875 62.59375 325.949219 61.328125 325.289062 60.097656 C 324.628906 58.863281 323.910156 57.664062 323.132812 56.5 C 322.355469 55.339844 321.523438 54.214844 320.632812 53.136719 C 319.746094 52.054688 318.808594 51.019531 317.820312 50.027344 C 316.828125 49.039062 315.792969 48.101562 314.714844 47.214844 C 313.632812 46.324219 312.507812 45.492188 311.347656 44.714844 C 310.183594 43.9375 308.984375 43.21875 307.75 42.558594 C 306.519531 41.898438 305.253906 41.300781 303.964844 40.765625 C 302.671875 40.230469 301.355469 39.757812 300.015625 39.351562 C 298.679688 38.945312 297.324219 38.601562 295.953125 38.328125 C 294.578125 38.054688 293.199219 37.847656 291.804688 37.710938 C 290.414062 37.570312 289.019531 37.5 287.617188 37.5 Z M 287.617188 37.5 " fill-opacity="1" fill-rule="nonzero"/></g><g clip-path="url(#a155bc6f08)"><path fill="#000000" d="M 287.617188 199.425781 L 87.328125 199.425781 C 85.929688 199.425781 84.53125 199.496094 83.140625 199.636719 C 81.75 199.773438 80.367188 199.980469 78.996094 200.253906 C 77.621094 200.527344 76.265625 200.867188 74.929688 201.277344 C 73.589844 201.683594 72.273438 202.152344 70.984375 202.691406 C 69.691406 203.226562 68.425781 203.824219 67.195312 204.484375 C 65.960938 205.144531 64.761719 205.863281 63.597656 206.640625 C 62.4375 207.417969 61.3125 208.25 60.234375 209.136719 C 59.152344 210.027344 58.117188 210.964844 57.125 211.953125 C 56.136719 212.941406 55.199219 213.976562 54.3125 215.058594 C 53.425781 216.140625 52.589844 217.261719 51.8125 218.425781 C 51.035156 219.589844 50.316406 220.789062 49.65625 222.019531 C 48.996094 223.253906 48.398438 224.515625 47.863281 225.808594 C 47.328125 227.101562 46.855469 228.417969 46.449219 229.753906 C 46.042969 231.09375 45.699219 232.449219 45.425781 233.820312 C 45.152344 235.191406 44.945312 236.574219 44.808594 237.96875 C 44.667969 239.359375 44.597656 240.753906 44.597656 242.152344 L 44.597656 280.519531 C 44.597656 281.917969 44.667969 283.316406 44.808594 284.707031 C 44.945312 286.101562 45.152344 287.480469 45.425781 288.855469 C 45.699219 290.226562 46.042969 291.582031 46.449219 292.917969 C 46.855469 294.257812 47.328125 295.574219 47.863281 296.863281 C 48.398438 298.15625 48.996094 299.421875 49.65625 300.652344 C 50.316406 301.886719 51.035156 303.085938 51.8125 304.25 C 52.589844 305.410156 53.425781 306.535156 54.3125 307.613281 C 55.199219 308.695312 56.136719 309.730469 57.125 310.722656 C 58.117188 311.710938 59.152344 312.648438 60.234375 313.535156 C 61.3125 314.425781 62.4375 315.257812 63.597656 316.035156 C 64.761719 316.8125 65.960938 317.53125 67.195312 318.191406 C 68.425781 318.851562 69.691406 319.449219 70.984375 319.984375 C 72.273438 320.519531 73.589844 320.992188 74.929688 321.398438 C 76.265625 321.804688 77.621094 322.148438 78.996094 322.421875 C 80.367188 322.695312 81.75 322.902344 83.140625 323.039062 C 84.53125 323.179688 85.929688 323.25 87.328125 323.25 L 320.824219 323.25 C 321.449219 323.25 322.066406 323.1875 322.679688 323.066406 C 323.292969 322.945312 323.890625 322.765625 324.46875 322.523438 C 325.046875 322.285156 325.59375 321.992188 326.113281 321.644531 C 326.632812 321.296875 327.117188 320.902344 327.558594 320.460938 C 328 320.019531 328.394531 319.535156 328.742188 319.015625 C 329.089844 318.496094 329.382812 317.949219 329.621094 317.371094 C 329.863281 316.792969 330.042969 316.195312 330.164062 315.582031 C 330.285156 314.96875 330.347656 314.351562 330.347656 313.726562 L 330.347656 242.152344 C 330.347656 240.753906 330.277344 239.359375 330.136719 237.96875 C 330 236.574219 329.792969 235.191406 329.519531 233.820312 C 329.246094 232.449219 328.90625 231.09375 328.496094 229.753906 C 328.089844 228.417969 327.617188 227.101562 327.082031 225.808594 C 326.546875 224.515625 325.949219 223.253906 325.289062 222.019531 C 324.628906 220.789062 323.910156 219.589844 323.132812 218.425781 C 322.355469 217.261719 321.523438 216.140625 320.632812 215.058594 C 319.746094 213.976562 318.808594 212.941406 317.820312 211.953125 C 316.828125 210.964844 315.792969 210.027344 314.714844 209.136719 C 313.632812 208.25 312.507812 207.417969 311.347656 206.640625 C 310.183594 205.863281 308.984375 205.144531 307.75 204.484375 C 306.519531 203.824219 305.253906 203.226562 303.964844 202.691406 C 302.671875 202.152344 301.355469 201.683594 300.015625 201.277344 C 298.679688 200.867188 297.324219 200.527344 295.953125 200.253906 C 294.578125 199.980469 293.199219 199.773438 291.804688 199.636719 C 290.414062 199.496094 289.019531 199.425781 287.617188 199.425781 Z M 287.617188 199.425781 " fill-opacity="1" fill-rule="nonzero"/></g><g fill="#ffffff" fill-opacity="1"><g transform="translate(65.706922, 290.086283)"><g><path d="M 32.484375 1.078125 C 26.796875 1.078125 21.691406 -0.117188 17.171875 -2.515625 C 12.648438 -4.921875 9.097656 -8.269531 6.515625 -12.5625 C 3.929688 -16.851562 2.640625 -21.710938 2.640625 -27.140625 C 2.640625 -32.566406 3.929688 -37.421875 6.515625 -41.703125 C 9.097656 -45.992188 12.648438 -49.34375 17.171875 -51.75 C 21.691406 -54.15625 26.796875 -55.359375 32.484375 -55.359375 C 37.441406 -55.359375 41.910156 -54.476562 45.890625 -52.71875 C 49.878906 -50.957031 53.191406 -48.425781 55.828125 -45.125 L 46.046875 -36.28125 C 42.535156 -40.519531 38.273438 -42.640625 33.265625 -42.640625 C 30.316406 -42.640625 27.691406 -41.992188 25.390625 -40.703125 C 23.085938 -39.410156 21.300781 -37.585938 20.03125 -35.234375 C 18.769531 -32.878906 18.140625 -30.179688 18.140625 -27.140625 C 18.140625 -24.085938 18.769531 -21.382812 20.03125 -19.03125 C 21.300781 -16.675781 23.085938 -14.851562 25.390625 -13.5625 C 27.691406 -12.269531 30.316406 -11.625 33.265625 -11.625 C 38.273438 -11.625 42.535156 -13.742188 46.046875 -17.984375 L 55.828125 -9.15625 C 53.191406 -5.84375 49.878906 -3.304688 45.890625 -1.546875 C 41.910156 0.203125 37.441406 1.078125 32.484375 1.078125 Z M 32.484375 1.078125 "/></g></g></g><g fill="#ffffff" fill-opacity="1"><g transform="translate(122.915199, 290.086283)"><g><path d="M 32.09375 -42.71875 C 37.3125 -42.71875 41.507812 -41.164062 44.6875 -38.0625 C 47.875 -34.96875 49.46875 -30.289062 49.46875 -24.03125 L 49.46875 0 L 34.734375 0 L 34.734375 -21.625 C 34.734375 -27.363281 32.429688 -30.234375 27.828125 -30.234375 C 25.296875 -30.234375 23.265625 -29.40625 21.734375 -27.75 C 20.210938 -26.101562 19.453125 -23.625 19.453125 -20.3125 L 19.453125 0 L 4.734375 0 L 4.734375 -57.53125 L 19.453125 -57.53125 L 19.453125 -38.140625 C 21.054688 -39.640625 22.941406 -40.773438 25.109375 -41.546875 C 27.285156 -42.328125 29.613281 -42.71875 32.09375 -42.71875 Z M 32.09375 -42.71875 "/></g></g></g><g fill="#ffffff" fill-opacity="1"><g transform="translate(176.867706, 290.086283)"><g><path d="M 47.6875 -20.9375 C 47.6875 -20.832031 47.609375 -19.617188 47.453125 -17.296875 L 16.90625 -17.296875 C 17.519531 -15.117188 18.71875 -13.445312 20.5 -12.28125 C 22.289062 -11.125 24.53125 -10.546875 27.21875 -10.546875 C 29.226562 -10.546875 30.96875 -10.828125 32.4375 -11.390625 C 33.914062 -11.960938 35.40625 -12.894531 36.90625 -14.1875 L 44.65625 -6.125 C 40.570312 -1.570312 34.601562 0.703125 26.75 0.703125 C 21.84375 0.703125 17.523438 -0.226562 13.796875 -2.09375 C 10.078125 -3.957031 7.195312 -6.539062 5.15625 -9.84375 C 3.113281 -13.15625 2.09375 -16.90625 2.09375 -21.09375 C 2.09375 -25.226562 3.085938 -28.9375 5.078125 -32.21875 C 7.066406 -35.5 9.816406 -38.066406 13.328125 -39.921875 C 16.847656 -41.785156 20.804688 -42.71875 25.203125 -42.71875 C 29.390625 -42.71875 33.1875 -41.851562 36.59375 -40.125 C 40.007812 -38.394531 42.710938 -35.882812 44.703125 -32.59375 C 46.691406 -29.3125 47.6875 -25.425781 47.6875 -20.9375 Z M 25.28125 -32.25 C 23 -32.25 21.097656 -31.601562 19.578125 -30.3125 C 18.054688 -29.019531 17.085938 -27.265625 16.671875 -25.046875 L 33.875 -25.046875 C 33.46875 -27.265625 32.5 -29.019531 30.96875 -30.3125 C 29.445312 -31.601562 27.550781 -32.25 25.28125 -32.25 Z M 25.28125 -32.25 "/></g></g></g><g fill="#ffffff" fill-opacity="1"><g transform="translate(226.63424, 290.086283)"><g><path d="M 47.6875 -20.9375 C 47.6875 -20.832031 47.609375 -19.617188 47.453125 -17.296875 L 16.90625 -17.296875 C 17.519531 -15.117188 18.71875 -13.445312 20.5 -12.28125 C 22.289062 -11.125 24.53125 -10.546875 27.21875 -10.546875 C 29.226562 -10.546875 30.96875 -10.828125 32.4375 -11.390625 C 33.914062 -11.960938 35.40625 -12.894531 36.90625 -14.1875 L 44.65625 -6.125 C 40.570312 -1.570312 34.601562 0.703125 26.75 0.703125 C 21.84375 0.703125 17.523438 -0.226562 13.796875 -2.09375 C 10.078125 -3.957031 7.195312 -6.539062 5.15625 -9.84375 C 3.113281 -13.15625 2.09375 -16.90625 2.09375 -21.09375 C 2.09375 -25.226562 3.085938 -28.9375 5.078125 -32.21875 C 7.066406 -35.5 9.816406 -38.066406 13.328125 -39.921875 C 16.847656 -41.785156 20.804688 -42.71875 25.203125 -42.71875 C 29.390625 -42.71875 33.1875 -41.851562 36.59375 -40.125 C 40.007812 -38.394531 42.710938 -35.882812 44.703125 -32.59375 C 46.691406 -29.3125 47.6875 -25.425781 47.6875 -20.9375 Z M 25.28125 -32.25 C 23 -32.25 21.097656 -31.601562 19.578125 -30.3125 C 18.054688 -29.019531 17.085938 -27.265625 16.671875 -25.046875 L 33.875 -25.046875 C 33.46875 -27.265625 32.5 -29.019531 30.96875 -30.3125 C 29.445312 -31.601562 27.550781 -32.25 25.28125 -32.25 Z M 25.28125 -32.25 "/></g></g></g><g fill="#ffffff" fill-opacity="1"><g transform="translate(276.400773, 290.086283)"><g><path d="M 33.71875 -1.703125 C 32.476562 -0.929688 30.96875 -0.335938 29.1875 0.078125 C 27.40625 0.492188 25.503906 0.703125 23.484375 0.703125 C 18.015625 0.703125 13.804688 -0.640625 10.859375 -3.328125 C 7.910156 -6.015625 6.4375 -10.019531 6.4375 -15.34375 L 6.4375 -29.46875 L 0.3125 -29.46875 L 0.3125 -40.46875 L 6.4375 -40.46875 L 6.4375 -51.40625 L 21.171875 -51.40625 L 21.171875 -40.46875 L 30.78125 -40.46875 L 30.78125 -29.46875 L 21.171875 -29.46875 L 21.171875 -15.5 C 21.171875 -14.007812 21.566406 -12.835938 22.359375 -11.984375 C 23.160156 -11.128906 24.234375 -10.703125 25.578125 -10.703125 C 27.285156 -10.703125 28.785156 -11.140625 30.078125 -12.015625 Z M 33.71875 -1.703125 "/></g></g></g><g fill="#ffffff" fill-opacity="1"><g transform="translate(44.59792, 124.095665)"><g><path d="M 47.140625 -28.296875 C 50.242188 -27.210938 52.671875 -25.519531 54.421875 -23.21875 C 56.179688 -20.914062 57.0625 -18.140625 57.0625 -14.890625 C 57.0625 -10.128906 55.148438 -6.457031 51.328125 -3.875 C 47.503906 -1.289062 41.972656 0 34.734375 0 L 5.421875 0 L 5.421875 -54.265625 L 33.1875 -54.265625 C 40.113281 -54.265625 45.382812 -52.984375 49 -50.421875 C 52.613281 -47.867188 54.421875 -44.421875 54.421875 -40.078125 C 54.421875 -37.492188 53.785156 -35.179688 52.515625 -33.140625 C 51.253906 -31.097656 49.460938 -29.484375 47.140625 -28.296875 Z M 20.625 -43.1875 L 20.625 -32.71875 L 31.171875 -32.71875 C 36.335938 -32.71875 38.921875 -34.472656 38.921875 -37.984375 C 38.921875 -41.453125 36.335938 -43.1875 31.171875 -43.1875 Z M 33.5 -11.09375 C 38.875 -11.09375 41.5625 -12.925781 41.5625 -16.59375 C 41.5625 -20.257812 38.875 -22.09375 33.5 -22.09375 L 20.625 -22.09375 L 20.625 -11.09375 Z M 33.5 -11.09375 "/></g></g></g><g fill="#ffffff" fill-opacity="1"><g transform="translate(104.20924, 124.095665)"><g><path d="M 22.640625 -42.71875 C 29.617188 -42.71875 34.941406 -41.128906 38.609375 -37.953125 C 42.273438 -34.773438 44.109375 -29.90625 44.109375 -23.34375 L 44.109375 0 L 30.390625 0 L 30.390625 -5.421875 C 28.273438 -1.335938 24.140625 0.703125 17.984375 0.703125 C 14.734375 0.703125 11.914062 0.132812 9.53125 -1 C 7.15625 -2.144531 5.359375 -3.6875 4.140625 -5.625 C 2.929688 -7.5625 2.328125 -9.769531 2.328125 -12.25 C 2.328125 -16.226562 3.847656 -19.316406 6.890625 -21.515625 C 9.941406 -23.710938 14.648438 -24.8125 21.015625 -24.8125 L 29.390625 -24.8125 C 29.128906 -29.257812 26.15625 -31.484375 20.46875 -31.484375 C 18.445312 -31.484375 16.398438 -31.160156 14.328125 -30.515625 C 12.265625 -29.867188 10.515625 -28.972656 9.078125 -27.828125 L 4.109375 -37.828125 C 6.429688 -39.378906 9.257812 -40.582031 12.59375 -41.4375 C 15.925781 -42.289062 19.273438 -42.71875 22.640625 -42.71875 Z M 22.09375 -8.609375 C 23.800781 -8.609375 25.300781 -9.019531 26.59375 -9.84375 C 27.882812 -10.675781 28.816406 -11.890625 29.390625 -13.484375 L 29.390625 -17.140625 L 23.03125 -17.140625 C 18.738281 -17.140625 16.59375 -15.71875 16.59375 -12.875 C 16.59375 -11.582031 17.082031 -10.546875 18.0625 -9.765625 C 19.039062 -8.992188 20.382812 -8.609375 22.09375 -8.609375 Z M 22.09375 -8.609375 "/></g></g></g><g fill="#ffffff" fill-opacity="1"><g transform="translate(152.89054, 124.095665)"><g><path d="M 22.640625 -42.71875 C 29.617188 -42.71875 34.941406 -41.128906 38.609375 -37.953125 C 42.273438 -34.773438 44.109375 -29.90625 44.109375 -23.34375 L 44.109375 0 L 30.390625 0 L 30.390625 -5.421875 C 28.273438 -1.335938 24.140625 0.703125 17.984375 0.703125 C 14.734375 0.703125 11.914062 0.132812 9.53125 -1 C 7.15625 -2.144531 5.359375 -3.6875 4.140625 -5.625 C 2.929688 -7.5625 2.328125 -9.769531 2.328125 -12.25 C 2.328125 -16.226562 3.847656 -19.316406 6.890625 -21.515625 C 9.941406 -23.710938 14.648438 -24.8125 21.015625 -24.8125 L 29.390625 -24.8125 C 29.128906 -29.257812 26.15625 -31.484375 20.46875 -31.484375 C 18.445312 -31.484375 16.398438 -31.160156 14.328125 -30.515625 C 12.265625 -29.867188 10.515625 -28.972656 9.078125 -27.828125 L 4.109375 -37.828125 C 6.429688 -39.378906 9.257812 -40.582031 12.59375 -41.4375 C 15.925781 -42.289062 19.273438 -42.71875 22.640625 -42.71875 Z M 22.09375 -8.609375 C 23.800781 -8.609375 25.300781 -9.019531 26.59375 -9.84375 C 27.882812 -10.675781 28.816406 -11.890625 29.390625 -13.484375 L 29.390625 -17.140625 L 23.03125 -17.140625 C 18.738281 -17.140625 16.59375 -15.71875 16.59375 -12.875 C 16.59375 -11.582031 17.082031 -10.546875 18.0625 -9.765625 C 19.039062 -8.992188 20.382812 -8.609375 22.09375 -8.609375 Z M 22.09375 -8.609375 "/></g></g></g><g fill="#ffffff" fill-opacity="1"><g transform="translate(201.571841, 124.095665)"><g><path d="M 33.71875 -1.703125 C 32.476562 -0.929688 30.96875 -0.335938 29.1875 0.078125 C 27.40625 0.492188 25.503906 0.703125 23.484375 0.703125 C 18.015625 0.703125 13.804688 -0.640625 10.859375 -3.328125 C 7.910156 -6.015625 6.4375 -10.019531 6.4375 -15.34375 L 6.4375 -29.46875 L 0.3125 -29.46875 L 0.3125 -40.46875 L 6.4375 -40.46875 L 6.4375 -51.40625 L 21.171875 -51.40625 L 21.171875 -40.46875 L 30.78125 -40.46875 L 30.78125 -29.46875 L 21.171875 -29.46875 L 21.171875 -15.5 C 21.171875 -14.007812 21.566406 -12.835938 22.359375 -11.984375 C 23.160156 -11.128906 24.234375 -10.703125 25.578125 -10.703125 C 27.285156 -10.703125 28.785156 -11.140625 30.078125 -12.015625 Z M 33.71875 -1.703125 "/></g></g></g></svg>