<svg xmlns="http://www.w3.org/2000/svg" xmlns:xlink="http://www.w3.org/1999/xlink" width="500" zoomAndPan="magnify" viewBox="0 0 375 374.999991" height="500" preserveAspectRatio="xMidYMid meet" version="1.0"><defs><g/></defs><rect x="-37.5" width="450" fill="#ffffff" y="-37.499999" height="449.999989" fill-opacity="1"/><rect x="-37.5" width="450" fill="#ffffff" y="-37.499999" height="449.999989" fill-opacity="1"/><g fill="#000000" fill-opacity="1"><g transform="translate(137.238965, 249.267478)"><g><path d="M 12.34375 0.40625 C 10.175781 0.40625 8.234375 -0.046875 6.515625 -0.953125 C 4.804688 -1.867188 3.457031 -3.140625 2.46875 -4.765625 C 1.488281 -6.398438 1 -8.25 1 -10.3125 C 1 -12.375 1.488281 -14.21875 2.46875 -15.84375 C 3.457031 -17.476562 4.804688 -18.75 6.515625 -19.65625 C 8.234375 -20.570312 10.175781 -21.03125 12.34375 -21.03125 C 14.226562 -21.03125 15.925781 -20.695312 17.4375 -20.03125 C 18.945312 -19.363281 20.203125 -18.398438 21.203125 -17.140625 L 17.5 -13.78125 C 16.164062 -15.394531 14.546875 -16.203125 12.640625 -16.203125 C 11.515625 -16.203125 10.515625 -15.953125 9.640625 -15.453125 C 8.765625 -14.960938 8.085938 -14.269531 7.609375 -13.375 C 7.128906 -12.488281 6.890625 -11.46875 6.890625 -10.3125 C 6.890625 -9.15625 7.128906 -8.128906 7.609375 -7.234375 C 8.085938 -6.335938 8.765625 -5.644531 9.640625 -5.15625 C 10.515625 -4.664062 11.515625 -4.421875 12.640625 -4.421875 C 14.546875 -4.421875 16.164062 -5.222656 17.5 -6.828125 L 21.203125 -3.46875 C 20.203125 -2.21875 18.945312 -1.257812 17.4375 -0.59375 C 15.925781 0.0703125 14.226562 0.40625 12.34375 0.40625 Z M 12.34375 0.40625 "/></g></g></g><g fill="#000000" fill-opacity="1"><g transform="translate(158.964689, 249.267478)"><g><path d="M 12.1875 -16.234375 C 14.175781 -16.234375 15.773438 -15.640625 16.984375 -14.453125 C 18.191406 -13.273438 18.796875 -11.5 18.796875 -9.125 L 18.796875 0 L 13.1875 0 L 13.1875 -8.21875 C 13.1875 -10.394531 12.316406 -11.484375 10.578125 -11.484375 C 9.609375 -11.484375 8.832031 -11.171875 8.25 -10.546875 C 7.675781 -9.921875 7.390625 -8.976562 7.390625 -7.71875 L 7.390625 0 L 1.796875 0 L 1.796875 -21.859375 L 7.390625 -21.859375 L 7.390625 -14.484375 C 8.003906 -15.054688 8.722656 -15.488281 9.546875 -15.78125 C 10.367188 -16.082031 11.25 -16.234375 12.1875 -16.234375 Z M 12.1875 -16.234375 "/></g></g></g><g fill="#000000" fill-opacity="1"><g transform="translate(179.453984, 249.267478)"><g><path d="M 18.109375 -7.953125 C 18.109375 -7.910156 18.082031 -7.445312 18.03125 -6.5625 L 6.421875 -6.5625 C 6.660156 -5.738281 7.117188 -5.101562 7.796875 -4.65625 C 8.472656 -4.21875 9.320312 -4 10.34375 -4 C 11.101562 -4 11.765625 -4.109375 12.328125 -4.328125 C 12.890625 -4.546875 13.453125 -4.898438 14.015625 -5.390625 L 16.96875 -2.328125 C 15.414062 -0.597656 13.144531 0.265625 10.15625 0.265625 C 8.289062 0.265625 6.648438 -0.0859375 5.234375 -0.796875 C 3.828125 -1.503906 2.734375 -2.484375 1.953125 -3.734375 C 1.179688 -4.992188 0.796875 -6.421875 0.796875 -8.015625 C 0.796875 -9.585938 1.171875 -10.992188 1.921875 -12.234375 C 2.679688 -13.484375 3.726562 -14.460938 5.0625 -15.171875 C 6.394531 -15.878906 7.898438 -16.234375 9.578125 -16.234375 C 11.160156 -16.234375 12.597656 -15.898438 13.890625 -15.234375 C 15.191406 -14.578125 16.21875 -13.625 16.96875 -12.375 C 17.726562 -11.132812 18.109375 -9.660156 18.109375 -7.953125 Z M 9.609375 -12.25 C 8.742188 -12.25 8.019531 -12.003906 7.4375 -11.515625 C 6.851562 -11.023438 6.484375 -10.359375 6.328125 -9.515625 L 12.875 -9.515625 C 12.71875 -10.359375 12.347656 -11.023438 11.765625 -11.515625 C 11.179688 -12.003906 10.460938 -12.25 9.609375 -12.25 Z M 9.609375 -12.25 "/></g></g></g><g fill="#000000" fill-opacity="1"><g transform="translate(198.35359, 249.267478)"><g><path d="M 18.109375 -7.953125 C 18.109375 -7.910156 18.082031 -7.445312 18.03125 -6.5625 L 6.421875 -6.5625 C 6.660156 -5.738281 7.117188 -5.101562 7.796875 -4.65625 C 8.472656 -4.21875 9.320312 -4 10.34375 -4 C 11.101562 -4 11.765625 -4.109375 12.328125 -4.328125 C 12.890625 -4.546875 13.453125 -4.898438 14.015625 -5.390625 L 16.96875 -2.328125 C 15.414062 -0.597656 13.144531 0.265625 10.15625 0.265625 C 8.289062 0.265625 6.648438 -0.0859375 5.234375 -0.796875 C 3.828125 -1.503906 2.734375 -2.484375 1.953125 -3.734375 C 1.179688 -4.992188 0.796875 -6.421875 0.796875 -8.015625 C 0.796875 -9.585938 1.171875 -10.992188 1.921875 -12.234375 C 2.679688 -13.484375 3.726562 -14.460938 5.0625 -15.171875 C 6.394531 -15.878906 7.898438 -16.234375 9.578125 -16.234375 C 11.160156 -16.234375 12.597656 -15.898438 13.890625 -15.234375 C 15.191406 -14.578125 16.21875 -13.625 16.96875 -12.375 C 17.726562 -11.132812 18.109375 -9.660156 18.109375 -7.953125 Z M 9.609375 -12.25 C 8.742188 -12.25 8.019531 -12.003906 7.4375 -11.515625 C 6.851562 -11.023438 6.484375 -10.359375 6.328125 -9.515625 L 12.875 -9.515625 C 12.71875 -10.359375 12.347656 -11.023438 11.765625 -11.515625 C 11.179688 -12.003906 10.460938 -12.25 9.609375 -12.25 Z M 9.609375 -12.25 "/></g></g></g><g fill="#000000" fill-opacity="1"><g transform="translate(217.253197, 249.267478)"><g><path d="M 12.8125 -0.640625 C 12.34375 -0.347656 11.769531 -0.125 11.09375 0.03125 C 10.414062 0.1875 9.691406 0.265625 8.921875 0.265625 C 6.835938 0.265625 5.234375 -0.242188 4.109375 -1.265625 C 2.992188 -2.285156 2.4375 -3.804688 2.4375 -5.828125 L 2.4375 -11.1875 L 0.125 -11.1875 L 0.125 -15.375 L 2.4375 -15.375 L 2.4375 -19.53125 L 8.046875 -19.53125 L 8.046875 -15.375 L 11.6875 -15.375 L 11.6875 -11.1875 L 8.046875 -11.1875 L 8.046875 -5.890625 C 8.046875 -5.316406 8.195312 -4.867188 8.5 -4.546875 C 8.800781 -4.222656 9.207031 -4.0625 9.71875 -4.0625 C 10.363281 -4.0625 10.929688 -4.226562 11.421875 -4.5625 Z M 12.8125 -0.640625 "/></g></g></g><g fill="#000000" fill-opacity="1"><g transform="translate(13.949675, 336.221145)"><g><path d="M 266.78125 -160.15625 C 284.332031 -154.019531 298.082031 -144.441406 308.03125 -131.421875 C 317.976562 -118.398438 322.953125 -102.675781 322.953125 -84.25 C 322.953125 -57.332031 312.128906 -36.5625 290.484375 -21.9375 C 268.835938 -7.3125 237.535156 0 196.578125 0 L 30.71875 0 L 30.71875 -307.15625 L 187.8125 -307.15625 C 227.007812 -307.15625 256.84375 -299.914062 277.3125 -285.4375 C 297.789062 -270.957031 308.03125 -251.429688 308.03125 -226.859375 C 308.03125 -212.234375 304.445312 -199.140625 297.28125 -187.578125 C 290.113281 -176.023438 279.945312 -166.882812 266.78125 -160.15625 Z M 116.71875 -244.40625 L 116.71875 -185.171875 L 176.390625 -185.171875 C 205.648438 -185.171875 220.28125 -195.117188 220.28125 -215.015625 C 220.28125 -234.609375 205.648438 -244.40625 176.390625 -244.40625 Z M 189.5625 -62.75 C 219.976562 -62.75 235.1875 -73.132812 235.1875 -93.90625 C 235.1875 -114.675781 219.976562 -125.0625 189.5625 -125.0625 L 116.71875 -125.0625 L 116.71875 -62.75 Z M 189.5625 -62.75 "/></g></g></g><g fill="#000000" fill-opacity="1"><g transform="translate(137.238965, 128.335319)"><g><path d="M 17.90625 -10.75 C 19.082031 -10.332031 20.003906 -9.6875 20.671875 -8.8125 C 21.335938 -7.945312 21.671875 -6.894531 21.671875 -5.65625 C 21.671875 -3.84375 20.941406 -2.445312 19.484375 -1.46875 C 18.035156 -0.488281 15.9375 0 13.1875 0 L 2.0625 0 L 2.0625 -20.609375 L 12.609375 -20.609375 C 15.234375 -20.609375 17.234375 -20.125 18.609375 -19.15625 C 19.984375 -18.1875 20.671875 -16.878906 20.671875 -15.234375 C 20.671875 -14.242188 20.429688 -13.359375 19.953125 -12.578125 C 19.472656 -11.804688 18.789062 -11.195312 17.90625 -10.75 Z M 7.828125 -16.40625 L 7.828125 -12.421875 L 11.84375 -12.421875 C 13.800781 -12.421875 14.78125 -13.09375 14.78125 -14.4375 C 14.78125 -15.75 13.800781 -16.40625 11.84375 -16.40625 Z M 12.71875 -4.21875 C 14.757812 -4.21875 15.78125 -4.910156 15.78125 -6.296875 C 15.78125 -7.691406 14.757812 -8.390625 12.71875 -8.390625 L 7.828125 -8.390625 L 7.828125 -4.21875 Z M 12.71875 -4.21875 "/></g></g></g><g fill="#000000" fill-opacity="1"><g transform="translate(159.877281, 128.335319)"><g><path d="M 8.59375 -16.234375 C 11.25 -16.234375 13.273438 -15.628906 14.671875 -14.421875 C 16.066406 -13.210938 16.765625 -11.359375 16.765625 -8.859375 L 16.765625 0 L 11.546875 0 L 11.546875 -2.0625 C 10.742188 -0.507812 9.171875 0.265625 6.828125 0.265625 C 5.597656 0.265625 4.53125 0.0507812 3.625 -0.375 C 2.71875 -0.8125 2.035156 -1.394531 1.578125 -2.125 C 1.117188 -2.863281 0.890625 -3.707031 0.890625 -4.65625 C 0.890625 -6.164062 1.46875 -7.335938 2.625 -8.171875 C 3.78125 -9.003906 5.566406 -9.421875 7.984375 -9.421875 L 11.15625 -9.421875 C 11.0625 -11.109375 9.9375 -11.953125 7.78125 -11.953125 C 7.007812 -11.953125 6.226562 -11.828125 5.4375 -11.578125 C 4.65625 -11.335938 3.992188 -11.003906 3.453125 -10.578125 L 1.5625 -14.375 C 2.445312 -14.957031 3.519531 -15.410156 4.78125 -15.734375 C 6.050781 -16.066406 7.320312 -16.234375 8.59375 -16.234375 Z M 8.390625 -3.265625 C 9.035156 -3.265625 9.601562 -3.421875 10.09375 -3.734375 C 10.59375 -4.054688 10.945312 -4.519531 11.15625 -5.125 L 11.15625 -6.515625 L 8.75 -6.515625 C 7.113281 -6.515625 6.296875 -5.972656 6.296875 -4.890625 C 6.296875 -4.398438 6.484375 -4.003906 6.859375 -3.703125 C 7.234375 -3.410156 7.742188 -3.265625 8.390625 -3.265625 Z M 8.390625 -3.265625 "/></g></g></g><g fill="#000000" fill-opacity="1"><g transform="translate(178.364754, 128.335319)"><g><path d="M 8.59375 -16.234375 C 11.25 -16.234375 13.273438 -15.628906 14.671875 -14.421875 C 16.066406 -13.210938 16.765625 -11.359375 16.765625 -8.859375 L 16.765625 0 L 11.546875 0 L 11.546875 -2.0625 C 10.742188 -0.507812 9.171875 0.265625 6.828125 0.265625 C 5.597656 0.265625 4.53125 0.0507812 3.625 -0.375 C 2.71875 -0.8125 2.035156 -1.394531 1.578125 -2.125 C 1.117188 -2.863281 0.890625 -3.707031 0.890625 -4.65625 C 0.890625 -6.164062 1.46875 -7.335938 2.625 -8.171875 C 3.78125 -9.003906 5.566406 -9.421875 7.984375 -9.421875 L 11.15625 -9.421875 C 11.0625 -11.109375 9.9375 -11.953125 7.78125 -11.953125 C 7.007812 -11.953125 6.226562 -11.828125 5.4375 -11.578125 C 4.65625 -11.335938 3.992188 -11.003906 3.453125 -10.578125 L 1.5625 -14.375 C 2.445312 -14.957031 3.519531 -15.410156 4.78125 -15.734375 C 6.050781 -16.066406 7.320312 -16.234375 8.59375 -16.234375 Z M 8.390625 -3.265625 C 9.035156 -3.265625 9.601562 -3.421875 10.09375 -3.734375 C 10.59375 -4.054688 10.945312 -4.519531 11.15625 -5.125 L 11.15625 -6.515625 L 8.75 -6.515625 C 7.113281 -6.515625 6.296875 -5.972656 6.296875 -4.890625 C 6.296875 -4.398438 6.484375 -4.003906 6.859375 -3.703125 C 7.234375 -3.410156 7.742188 -3.265625 8.390625 -3.265625 Z M 8.390625 -3.265625 "/></g></g></g><g fill="#000000" fill-opacity="1"><g transform="translate(196.852227, 128.335319)"><g><path d="M 12.8125 -0.640625 C 12.34375 -0.347656 11.769531 -0.125 11.09375 0.03125 C 10.414062 0.1875 9.691406 0.265625 8.921875 0.265625 C 6.835938 0.265625 5.234375 -0.242188 4.109375 -1.265625 C 2.992188 -2.285156 2.4375 -3.804688 2.4375 -5.828125 L 2.4375 -11.1875 L 0.125 -11.1875 L 0.125 -15.375 L 2.4375 -15.375 L 2.4375 -19.53125 L 8.046875 -19.53125 L 8.046875 -15.375 L 11.6875 -15.375 L 11.6875 -11.1875 L 8.046875 -11.1875 L 8.046875 -5.890625 C 8.046875 -5.316406 8.195312 -4.867188 8.5 -4.546875 C 8.800781 -4.222656 9.207031 -4.0625 9.71875 -4.0625 C 10.363281 -4.0625 10.929688 -4.226562 11.421875 -4.5625 Z M 12.8125 -0.640625 "/></g></g></g></svg>